<svg id="Group_8783" data-name="Group 8783" xmlns="http://www.w3.org/2000/svg" xmlns:xlink="http://www.w3.org/1999/xlink" width="42.795" height="20.14" viewBox="0 0 42.795 20.14">
  <defs>
    <clipPath id="clip-path">
      <rect id="Rectangle_1403" data-name="Rectangle 1403" width="42.795" height="20.14" fill="#fff"/>
    </clipPath>
  </defs>
  <g id="Group_8779" data-name="Group 8779" clip-path="url(#clip-path)">
    <path id="Path_9291" data-name="Path 9291" d="M150.192,7.457a46.262,46.262,0,0,1-5.661-4.383,10.767,10.767,0,0,0-1.225-1.033A18.94,18.94,0,0,0,139.434,0c-.141.421-.27.858-.786,1.055a.543.543,0,0,0-.235.661c.186.288.052.439-.053.675a1.341,1.341,0,0,0,1.029,1.838c.308.054.745-.125.79.445.011.139.2.308.363.187.248-.185.323-.135.477.124a3.715,3.715,0,0,0,.946.938c.269.214.584.407.585.884A75.285,75.285,0,0,1,131.4,6.655c-.122.137.1.406-.112.574-.147-.779-.147-.779-1.088-.8-.638-.016-.645-.015-.55.6-.078-.044-.179-.075-.217-.141a1.007,1.007,0,0,0-1.06-.6,1.544,1.544,0,0,0-1.206.544c-.027-.339-.245-.421-.565-.464-.976-.131-1.94.17-2.928,0,.023.325.074.584.42.553.472-.041.926.21,1.408.056a.9.9,0,0,1,.469.036.405.405,0,0,1,.326.56c-.106.286-.286.132-.441.009-.327-.261-.411.138-.61.227-.2-.733-.75-.028-1.038-.328-.158.342.53.378.121.757-.177.163.051.6-.4.82.054-.642.152-1.236-.659-1.527a1.357,1.357,0,0,1-.478,1.134.475.475,0,0,0-.033.691c.123.131.169.307-.075.346-.175.028-.421.035-.333-.284s-.226-.58-.122-.926c.219-.729-.584-.471-.849-.766-.225-.25-.075.409-.356.461-.167-.4-.394-.694-.94-.548.01.52.72,1,.06,1.572a3.655,3.655,0,0,1-.161-.656c-.031-.541-.293-.191-.476-.148.346.325-.433.646.021,1.051a2.262,2.262,0,0,1,.439,1.093c.1.372.128.755.813.853-1.047.117-1.047.117-1.019.924.277.007.326-.53.7-.293l-.015.014.025.012a.162.162,0,0,0-.011-.025c.332-.305.621-.218.862.125.323.46.6.336.886-.039a.651.651,0,0,1,.207-.129c.4.133-.508.415.131.616.475.149.6.031.726-.344.036-.108.041-.27.233-.232.224.129.112.33.12.511.009.21.157.257.334.2.193-.057.786-.955.683-1.029-.478-.344.143-.557.062-.792a1.958,1.958,0,0,1-.085-.97c.03-.2.06-.313.262-.271.166.035.451,0,.4.284-.063.346.131.686-.039,1.034-.283.58.18.5.608.468-.325.432-1.02.5-.788,1.146.431.225.7.051.865-.367a3.085,3.085,0,0,0,.113-.46c.037-.172.12-.3.315-.285.17.01.348.088.328.268-.032.293.149.458.295.651a.661.661,0,0,0,.321-.552c-.048-.451.239-.7.444-1.113a6.1,6.1,0,0,0,.419.76c.134.175.407.371.569.257.766-.536,1.53.279,2.289-.04.137-.057.281.12.3.3s-.022.4.281.378c.242-.017.325-.134.3-.373-.014-.165.12-.192.258-.177v0c.124.085.091.609.418.142a.442.442,0,0,1,.568-.206c-.522.609-.522.609-.328,1.239.41-.1.072-.973.8-.772.2-.584.729-.495,1.167-.6.16.388-.125.893.324,1.226a1.873,1.873,0,0,0,.316-.844c.017-.132.062-.257.216-.266a5.519,5.519,0,0,1,1.806.006.254.254,0,0,1,.19.367c-.049.13-.161.211-.293.1-.237-.2-.34-.056-.4.15-.051.172-.194.371-.008.53a.371.371,0,0,0,.518-.049c.162-.143.288-.347.567-.3a1.954,1.954,0,0,0,.042.454c.142.424.291-.154.351-.022a1.8,1.8,0,0,1,.284,1,1.6,1.6,0,0,0-.042.566c.112.453.035.581-.431.684-.25.056-.424.186-.147.455.3.292.1.455-.189.514a2.421,2.421,0,0,0-.986.327c-.253.184-.711.307-.293.758-.335.371.363,1.026-.354,1.3-.03.012-.033.115-.036.176a1.708,1.708,0,0,0,.9,1.274,1.2,1.2,0,0,0,1.364-.339,6.6,6.6,0,0,1,.681-.653c.858-.871,2.011-1.453,2.582-2.606h.007v-.014l-.015.014.107-.212.094.2a.847.847,0,0,0,.779-.819c.018-.163.123-.416.237-.343.566.368.592-.689,1.1-.385.122-.6.75-.685,1.1-1.062.537-.58,1.161-1.079,1.75-1.61.093-.084.2-.217.3-.218.9-.012,1.444-.682,2.063-1.155a5.054,5.054,0,0,0,1.309-2.4.791.791,0,0,0-.38-.989M140.773,4.2c-.065.015-.113-.015-.1-.079.008-.036.065-.065.105-.087.011-.006.063.033.062.037a1.385,1.385,0,0,1-.069.13M120.919,8.341a.916.916,0,0,1,.073-.106l-.046.173c-.01-.023-.035-.054-.027-.067m.119,2.038c-.089.013-.211.032-.268-.014-.24-.194-.007-.458-.077-.694-.078-.261.142-.278.322-.3a2.882,2.882,0,0,0,.146.8c.013.095-.007.2-.123.213m0-1.039c.012-.165-.039-.348.13-.464.023-.016.133.031.135.054.017.2-.116.313-.265.41m.643.422a1.112,1.112,0,0,1-.184-.163c-.012-.016.043-.12.08-.13.1-.026.16.044.173.151l-.07.141m1.11,1.145c.028.189.106.408-.156.47-.162.038-.231-.129-.174-.251.089-.19-.236-.569.246-.568.069,0,.139.092.208.149a.179.179,0,0,0-.124.2m.492-.043c-.2.176-.235-.063-.329-.154.144-.054.183-.382.409-.181.107.1.008.26-.079.335m.471-1.172a.646.646,0,0,1,.081-.21c.143-.029.208.042.2.135a.29.29,0,0,1-.119.205c-.11.059-.165-.042-.161-.131m.307.954c-.024.076-.08.08-.121.015-.014-.022-.024-.066-.012-.081a.6.6,0,0,1,.107-.09c.011.057.04.114.026.157m.476-2.053c.185-.059.1.085.114.165-.071-.052-.145-.155-.114-.165m.237.389c-.086,0-.1-.109-.1-.2l.179,0c.006.086,0,.2-.081.2m.1-.219c.049-.1.092-.21.228-.224.011,0,.044.051.038.07-.04.136-.158.138-.266.153m.3-.715c-.155-.126-.03-.164.051-.216l-.051.216m1.267.911a.524.524,0,0,1,.075-.15l.052.161c-.016.056-.03.155-.047.156-.128,0-.089-.1-.079-.167m.015,1.959c-.164.032-.224-.074-.214-.217.011-.162.048-.326.252-.336a.227.227,0,0,1,.247.227.322.322,0,0,1-.285.326m.466-1.627.011-.064L127,9.27Zm.188-1.892a.189.189,0,0,1-.23-.112c-.155-.3.05-.37.272-.424a.226.226,0,0,1,.014.073c-.011.156.221.348-.056.463m.9,2.382c-.027.137-.159.181-.283.2s-.165-.072-.154-.175a.206.206,0,0,1,.257-.2c.1.019.2.058.18.172M128,7.056c-.008-.008.012-.042.02-.064.019.007.054.015.054.022,0,.074-.03.091-.074.042m.743.042a.15.15,0,0,1,.214-.1.287.287,0,0,1,.166.307.207.207,0,0,1-.241.085.2.2,0,0,1-.139-.292m.262,3.83c-.02-.008-.055-.015-.056-.025a.219.219,0,0,1,.019-.074c.021.008.059.016.059.024a.237.237,0,0,1-.022.075m-.066-1.049a.153.153,0,0,1-.061-.139.98.98,0,0,1,.138-.2l.134.207c-.037.132-.117.17-.211.137m.328-.964c-.223-.393-.476-.654-.272-1.1a.923.923,0,0,1,.272,1.1m.488-1.678c-.1-.027-.088-.1-.088-.174a1.062,1.062,0,0,1,.108.107c.009.011-.018.067-.019.067m1.239,2.713c-.121.076-.152-.026-.155-.112,0-.045.052-.092.081-.138l.133.1c-.019.052-.023.128-.06.151m1.307,1.8c-.029.042-.092.061-.144.087a.5.5,0,0,1-.005-.168,1.6,1.6,0,0,1,.1-.239c.049.026.143.061.14.077a.647.647,0,0,1-.093.243m.875-.821a.228.228,0,0,1-.014-.065c0-.006.045-.019.048-.015.037.058.024.086-.034.08m1.6-.636-.031.074-.032-.075Zm.1.692c-.046-.023-.118-.037-.129-.07s.031-.094.05-.142c.046.023.12.036.132.071s-.033.094-.053.142m1.449.094-.058.027a.406.406,0,0,1-.044-.146c.008-.075.066-.093.1-.036.022.04,0,.1,0,.156m2.238.782.029-.059.015.064Zm-.052-.437c-.2-.311-.056-.547-.035-.951.217.405.279.642.035.951m-.679,6.562c.092.033.073.108.073.176a.944.944,0,0,1-.1-.109c-.008-.011.024-.067.025-.067m0,.788c-.125-.235.022-.4.081-.577.247.216-.006.37-.081.577m3.053-6.591.029.069h-.06Zm-1.555.6c.144.127.027.16-.058.2l.058-.2m-.175,5.846c-.027-.053-.079-.107-.076-.159s.061-.1.1-.146l.084.157-.1.148m.593-.587c-.015.037-.075.06-.119.078-.013.005-.042-.028-.063-.043l.1-.119c.064-.012.106.022.081.084m-.372-4.193c-.54-.1-.654-.152-.406-.615.052-.1.187-.148.287-.218.128.413.465.167.7.185.3.022.567-.271.977-.082-.535.3-.817.874-1.559.73m2.655-2.524L142,11.24l.068.009Z" transform="translate(-107.831)" fill="#fff"/>
    <path id="Path_9292" data-name="Path 9292" d="M11.535,76.966c-.086-.02-.186.031-.281.033a.244.244,0,0,1-.279-.2c-.014-.158.131-.182.261-.2.167-.024.36.192.532-.09a1.1,1.1,0,0,1-.616-.93c.028-.605.015-1.006-.71-1.075-.142-.014.067-.377-.231-.494a4.1,4.1,0,0,0-.391,1.115c-.018.338.591-.082.667.357.014.082.114.15.051.277-.178.183-.459.123-.688.217-.425.175-.646,0-.536-.427.114-.44-.18-.788-.137-1.211-.477.533-.543,1.245-.931,1.8-.052.075.073.275.126.423-.227.018-.319.171-.369.368-.217-.027-.564.093-.366-.372.319-.748.62-1.5.927-2.25-.855-.448-.845.6-1.377.737-.258-.618.5-.791.517-1.273-.208-.1-.4-.159-.556.105a.6.6,0,0,1-.736.267l.054.462a.372.372,0,0,1-.119-.465c-.488.11-.179-.26-.238-.4-.069-.169-.061-.419-.341-.344-.173.046-.375.121-.344.377.014.114.27.173.1.336-.317-.035-.387-.343-.616-.464-.471-.247-.623-.189-.78.353l-.268.927c-.217-.332-.019-.558.017-.789.089-.57.034-.642-.521-.775-.4-.1-.755.126-1.13.1C1.207,73.364.992,74.279.6,74.864c-.262.391.217.848.484,1.225.018.025.053.039.069.065.322.523.075.982-.544,1.071-.186.027-.448-.2-.61.223.356.242.778.1,1.15.172.305.056.6.048.7.485a.517.517,0,0,0,.916.217,3.222,3.222,0,0,0,.371-.558c.23.207,0,.61.373.691.115-.1.091-.312.275-.363.247.344.513.491.766.005a1.054,1.054,0,0,1,.671-.5c.208-.068.229.149.28.291a3.01,3.01,0,0,1-.316.167c-.212.085-.457.175-.371.453.123.4.346.024.523.037s.369.084.554.089c.235.006.525.088.381-.38-.083-.271.242-.359.452-.3.322.093.092.262.018.422-.137.3-.037.432.291.336.111-.032.2-.169.336-.072.7.485,1.5.1,2.242.25.02,0,.073-.156.111-.239l.015.014c0-.005,0-.01,0-.015H9.732c-.265-.356-.684-.231-1.034-.321-.317-.082-.545-.517-.337-.71s.507-.345.748-.55c.2-.167.35.271.566.219.474-.115.13.564.585.508l.246-.851a1.013,1.013,0,0,0,.963.531c.136,0,.263-.006.293-.159a.282.282,0,0,0-.228-.354M1.151,75.135a.209.209,0,0,1-.065-.017c.007-.017.014-.047.022-.047a.2.2,0,0,1,.064.018c-.007.016-.014.046-.022.046m.9.1c-.365-.088.1-.97-.658-.565-.053.028-.1-.133-.071-.22a.693.693,0,0,1,.416-.481.193.193,0,0,1,.281.155c.014.358.344.7.031,1.111m.779,1.259v-.061l.071.029Zm1.078.394c-.18-.059-.092-.2-.1-.316a.317.317,0,0,1,.1.316m-.187-1.356c.042.059.029.087-.034.081a.244.244,0,0,1-.017-.067.083.083,0,0,1,.05-.015m-.175.957c.127-.164.172-.043.225.047l-.225-.047m.259,1.587a1,1,0,0,1,.106-.108c.011-.009.048.013.073.021-.03.1-.107.086-.178.088m.669-3.987a1.086,1.086,0,0,1,.078-.134c.07,0,.118.032.1.1-.012.039-.074.066-.118.088-.01,0-.062-.042-.058-.05m.161,2.641a.352.352,0,0,1-.079-.147c-.017-.092-.006-.188.1-.225.011,0,.057.094.086.145,0,.093,0,.187-.106.227m.966-.021a.122.122,0,0,1,.046-.066c.061-.042.106-.026.131.041-.032.04-.057.1-.1.116-.059.023-.094-.024-.078-.092m.149,1.354a.087.087,0,0,1-.062.055c-.171.014-.152-.106-.159-.208.082.041.239-.027.222.153m.07-.688c-.019-.007-.055-.015-.055-.022,0-.079.033-.1.076-.045.008.01-.013.045-.021.068M5.867,75.7a.713.713,0,0,1,.03-.145c.007-.018.05-.02.077-.03l.039.145-.146.029m1.174-.079c.063.037.036.1-.047.082-.041-.008-.074-.064-.109-.107a.366.366,0,0,1,.156.026m-.318-.136a.917.917,0,0,1,.1.079l-.17-.058c.023-.008.055-.029.068-.021M6.6,74.832c-.168.016-.112-.088-.106-.164l.106.164m.363,2.72c-.114.12-.2.058-.288-.033.1-.025.18-.155.3-.049a.087.087,0,0,1-.009.082M6.647,77.5a.837.837,0,0,1-.465-1.038c.387,0,.592.305.947.363-.127.273-.617.282-.482.675m1.485-.352a.518.518,0,0,1-.107-.2.508.508,0,0,1,.2.1c.036.042-.048.129-.091.094m.877-.657c-.168.311-.387.221-.609.073.179-.107.243-.49.568-.237a.177.177,0,0,1,.041.164m1.413.431c-.19-.057-.445.106-.569-.161a.162.162,0,0,1,.069-.142c.289-.083.455.073.573.308a.259.259,0,0,1-.073-.006" transform="translate(0 -66.238)" fill="#fff"/>
    <path id="Path_9293" data-name="Path 9293" d="M221.934,124.684c.023.138-.015.408.117.338.413-.22.932-.032,1.308-.393-.5-.357-.954.12-1.425.055" transform="translate(-200.474 -112.457)" fill="#fff"/>
    <path id="Path_9294" data-name="Path 9294" d="M204.395,125.114a.187.187,0,0,0-.244.2c0,.24.078.439.362.426a.268.268,0,0,0,.243-.246.467.467,0,0,0-.361-.377" transform="translate(-184.41 -113.009)" fill="#fff"/>
    <path id="Path_9295" data-name="Path 9295" d="M189.119,128.162c-.224.036-.525-.142-.642.207a.173.173,0,0,0,.065.154.561.561,0,0,0,.691-.11,1.159,1.159,0,0,0,.147-.225.906.906,0,0,0-.262-.025" transform="translate(-170.249 -115.756)" fill="#fff"/>
    <path id="Path_9296" data-name="Path 9296" d="M197.847,128.433l.021,0-.013-.016h0l-.008.013" transform="translate(-178.716 -116.002)" fill="#fff"/>
    <path id="Path_9297" data-name="Path 9297" d="M147.23,76.217c-.114-.24-.223-.451-.53-.381-.049.011-.117.168-.1.229.113.311.347.253.625.152" transform="translate(-132.424 -68.491)" fill="#fff"/>
    <path id="Path_9298" data-name="Path 9298" d="M101.327,123.472a.186.186,0,0,0-.077-.152c-.272-.091-.383.092-.464.3a.531.531,0,0,0-.016.166,1.612,1.612,0,0,0,.168-.017c.179-.035.376-.055.388-.3" transform="translate(-91.027 -111.374)" fill="#fff"/>
    <path id="Path_9299" data-name="Path 9299" d="M87.309,78.071c.092.011.191,0,.226-.119a.122.122,0,0,0-.183-.121c-.179.078-.473-.167-.506.04s.282.179.463.2" transform="translate(-78.446 -70.264)" fill="#fff"/>
    <path id="Path_9300" data-name="Path 9300" d="M268.218,130.933a.268.268,0,0,0,.393-.03.8.8,0,0,0,.059-.339,1.073,1.073,0,0,0-.335.072c-.1.056-.213.2-.116.3" transform="translate(-242.248 -117.939)" fill="#fff"/>
    <path id="Path_9301" data-name="Path 9301" d="M273.236,130.377l.016,0c0-.006,0-.012,0-.017l-.015.005s0,.01,0,.015" transform="translate(-246.815 -117.752)" fill="#fff"/>
    <path id="Path_9302" data-name="Path 9302" d="M238.14,131.469c-.156-.02-.222.084-.214.224a.152.152,0,0,0,.186.153.215.215,0,0,0,.178-.182.187.187,0,0,0-.15-.2" transform="translate(-214.918 -118.754)" fill="#fff"/>
    <path id="Path_9303" data-name="Path 9303" d="M293.652,126.7c-.166-.135-.281.02-.335.158a1.058,1.058,0,0,0-.028.336,1.649,1.649,0,0,0,.287-.187c.083-.079.185-.218.075-.307" transform="translate(-264.929 -114.406)" fill="#fff"/>
    <path id="Path_9304" data-name="Path 9304" d="M293.171,132.316c0-.007,0-.014,0-.021l-.013.007Z" transform="translate(-264.811 -119.502)" fill="#fff"/>
    <path id="Path_9305" data-name="Path 9305" d="M114.436,124.345a.162.162,0,0,0,.006.018l.02.007c0-.007,0-.015,0-.022l-.022,0" transform="translate(-103.37 -112.321)" fill="#fff"/>
    <path id="Path_9306" data-name="Path 9306" d="M111.389,120.172c-.035-.005-.107.065-.118.111-.063.264.121.274.295.292-.047-.142.088-.364-.176-.4" transform="translate(-100.5 -108.551)" fill="#fff"/>
    <path id="Path_9307" data-name="Path 9307" d="M142.054,68.061c.033.007.118-.061.114-.083a.18.18,0,0,0-.187-.155c-.071.02-.1.071-.061.132a.244.244,0,0,0,.134.106" transform="translate(-128.181 -61.265)" fill="#fff"/>
    <path id="Path_9308" data-name="Path 9308" d="M105.918,73.921c-.025-.007-.077,0-.081.015a.837.837,0,0,0-.02.153l.153-.026c.037-.069.021-.121-.052-.143" transform="translate(-95.585 -66.771)" fill="#fff"/>
    <path id="Path_9309" data-name="Path 9309" d="M12.493,121.087c-.05.029-.129.05-.141.091a.174.174,0,0,0,.058.159.118.118,0,0,0,.181-.12c0-.044-.064-.086-.1-.129" transform="translate(-11.155 -109.378)" fill="#fff"/>
    <path id="Path_9310" data-name="Path 9310" d="M114.705,124.6c.021.113.017.243.165.273.029.006.111-.071.106-.1-.025-.152-.166-.136-.272-.173" transform="translate(-103.613 -112.55)" fill="#fff"/>
    <path id="Path_9311" data-name="Path 9311" d="M221.675,126.268l.01.008h.015c0-.006,0-.013,0-.019l-.022.009" transform="translate(-200.24 -114.05)" fill="#fff"/>
    <path id="Path_9312" data-name="Path 9312" d="M217.673,125.135c0,.049-.022.113,0,.143a.184.184,0,0,0,.235.032l.142-.057a.427.427,0,0,0-.132-.093,1.319,1.319,0,0,0-.246-.024" transform="translate(-196.616 -113.035)" fill="#fff"/>
    <path id="Path_9313" data-name="Path 9313" d="M250.992,133.928s.028.044.043.067a.982.982,0,0,0,.117-.1c.006-.007-.025-.047-.039-.072a1.315,1.315,0,0,0-.121.106" transform="translate(-226.722 -120.882)" fill="#fff"/>
    <path id="Path_9314" data-name="Path 9314" d="M175.538,130.605a.091.091,0,0,0,.058.065c.185.024.186-.1.179-.221-.118-.011-.243-.03-.238.156" transform="translate(-158.564 -117.829)" fill="#fff"/>
    <path id="Path_9315" data-name="Path 9315" d="M177.992,130.37h.016l0-.01-.013-.006c0,.005,0,.01,0,.015" transform="translate(-160.78 -117.75)" fill="#fff"/>
    <path id="Path_9316" data-name="Path 9316" d="M273.515,127.236c-.124.064-.1.189-.108.3.114-.038.219-.091.226-.23,0-.023-.094-.082-.117-.07" transform="translate(-246.968 -114.931)" fill="#fff"/>
    <path id="Path_9317" data-name="Path 9317" d="M130.865,124.856c.024-.012-.112-.157-.228-.214.039.117-.009.327.228.214" transform="translate(-118.005 -112.589)" fill="#fff"/>
    <path id="Path_9318" data-name="Path 9318" d="M134.069,69.965l-.028-.133h-.081a.715.715,0,0,0,.035.13c0,.01.049,0,.075,0" transform="translate(-121.006 -63.079)" fill="#fff"/>
    <path id="Path_9319" data-name="Path 9319" d="M350.827,170.418c.088,0,.1-.124.093-.22h-.181c0,.094-.005.219.088.22" transform="translate(-316.822 -153.74)" fill="#fff"/>
    <path id="Path_9320" data-name="Path 9320" d="M352.619,170.049h.014l-.008-.016-.007,0s0,.01,0,.015" transform="translate(-318.521 -153.591)" fill="#fff"/>
    <path id="Path_9321" data-name="Path 9321" d="M291.18,132.767a.859.859,0,0,0,.1-.081l-.164.06c.023.008.055.029.068.02" transform="translate(-262.962 -119.856)" fill="#fff"/>
    <path id="Path_9322" data-name="Path 9322" d="M292.858,132.385l-.012-.014-.033.03.045-.017" transform="translate(-264.499 -119.571)" fill="#fff"/>
    <path id="Path_9323" data-name="Path 9323" d="M99.4,118.317l.038-.076h-.073Z" transform="translate(-89.752 -106.807)" fill="#fff"/>
    <path id="Path_9324" data-name="Path 9324" d="M120.414,86.637c0,.008,0,.017,0,.025l.022,0-.008-.008-.017-.013" transform="translate(-108.77 -78.259)" fill="#fff"/>
    <path id="Path_9325" data-name="Path 9325" d="M119.228,84.774c.011.043.067.074.111.108a.349.349,0,0,0-.031-.153c-.042-.063-.1-.034-.08.045" transform="translate(-107.695 -76.505)" fill="#fff"/>
    <path id="Path_9326" data-name="Path 9326" d="M153.079,68.681l-.055-.01.019.064Z" transform="translate(-138.227 -62.031)" fill="#fff"/>
  </g>
</svg>
