<svg id="Group_8727" data-name="Group 8727" xmlns="http://www.w3.org/2000/svg" xmlns:xlink="http://www.w3.org/1999/xlink" width="55.212" height="55.211" viewBox="0 0 55.212 55.211">
  <defs>
    <clipPath id="clip-path">
      <rect id="Rectangle_1300" data-name="Rectangle 1300" width="55.212" height="55.211" fill="#a40418"/>
    </clipPath>
  </defs>
  <g id="Group_8590" data-name="Group 8590" clip-path="url(#clip-path)">
    <path id="Path_9223" data-name="Path 9223" d="M64.19,79.487H44.205a.884.884,0,0,1-.63-.261L33.1,68.753a.891.891,0,0,1-.261-.629V53.731a.889.889,0,0,1,.61-.845,14.312,14.312,0,0,0,9.812-13.612,13.852,13.852,0,0,0-.183-2.268.89.89,0,0,1,.879-1.033H55.581a.89.89,0,0,1,.879,1.033,13.852,13.852,0,0,0-.183,2.268,14.3,14.3,0,0,0,9.81,13.612.89.89,0,0,1,.611.845V76.978a2.511,2.511,0,0,1-2.509,2.509m-19.616-1.78H64.19a.729.729,0,0,0,.728-.729V54.361A16.081,16.081,0,0,1,54.5,39.275c0-.516.024-1.02.072-1.522H44.975c.048.5.072,1.006.072,1.522A16.089,16.089,0,0,1,34.625,54.36v13.4Z" transform="translate(-22.165 -24.276)" fill="#a40418"/>
    <path id="Path_9224" data-name="Path 9224" d="M75.042,104.925H69.651a3.863,3.863,0,0,1-3.859-3.858V96.011a.89.89,0,0,1,.891-.89H78.01a.89.89,0,0,1,.891.89v5.055a3.863,3.863,0,0,1-3.859,3.858M67.574,96.9v4.166a2.081,2.081,0,0,0,2.077,2.078h5.391a2.081,2.081,0,0,0,2.078-2.078V96.9Z" transform="translate(-44.399 -64.192)" fill="#a40418"/>
    <path id="Path_9225" data-name="Path 9225" d="M76.808,13.481a.89.89,0,0,1-.891-.89V6.7a4.916,4.916,0,1,0-9.833,0v5.892a.891.891,0,0,1-1.781,0V6.7a6.7,6.7,0,1,1,13.4,0v5.892a.89.89,0,0,1-.891.89" transform="translate(-43.395 0)" fill="#a40418"/>
    <path id="Path_9226" data-name="Path 9226" d="M132.386,55.673a.89.89,0,0,1-.891-.89V42.325a4.8,4.8,0,1,1,9.591,0v3.618a1.978,1.978,0,0,0,1.974,1.976.89.89,0,1,1,0,1.78,3.76,3.76,0,0,1-3.755-3.756V42.325a3.014,3.014,0,1,0-6.029,0V54.783a.89.89,0,0,1-.891.89" transform="translate(-88.739 -25.326)" fill="#a40418"/>
    <path id="Path_9227" data-name="Path 9227" d="M11.565,55.673a.89.89,0,0,1-.891-.89V42.325a3.015,3.015,0,1,0-6.029,0v3.618A3.759,3.759,0,0,1,.891,49.7a.89.89,0,1,1,0-1.78,1.977,1.977,0,0,0,1.974-1.976V42.325a4.8,4.8,0,1,1,9.591,0V54.783a.89.89,0,0,1-.891.89" transform="translate(0 -25.326)" fill="#a40418"/>
    <path id="Path_9228" data-name="Path 9228" d="M44.206,144.367a.887.887,0,0,1-.63-.261L33.105,133.633a.89.89,0,0,1,.63-1.519h8.852a2.511,2.511,0,0,1,2.509,2.508v8.856a.888.888,0,0,1-.891.89m-8.321-10.473,7.43,7.432v-6.7a.72.72,0,0,0-.728-.728Z" transform="translate(-22.165 -89.157)" fill="#a40418"/>
  </g>
</svg>
