<svg id="Group_8730" data-name="Group 8730" xmlns="http://www.w3.org/2000/svg" xmlns:xlink="http://www.w3.org/1999/xlink" width="40.589" height="57.455" viewBox="0 0 40.589 57.455">
  <defs>
    <clipPath id="clip-path">
      <rect id="Rectangle_1298" data-name="Rectangle 1298" width="40.589" height="57.455" fill="#a40418"/>
    </clipPath>
  </defs>
  <g id="Group_8586" data-name="Group 8586" clip-path="url(#clip-path)">
    <path id="Path_9213" data-name="Path 9213" d="M15.492,32.032a.928.928,0,0,1-.837-.53,1.6,1.6,0,0,0-2-.793.927.927,0,0,1-1.24-.655A16.712,16.712,0,0,1,43.268,20.21a.927.927,0,0,1-.524,1.2L15.831,31.967a.921.921,0,0,1-.338.065m-2.264-3.283a3.452,3.452,0,0,1,2.624,1.22l25.324-9.934a14.86,14.86,0,0,0-28.127,8.718c.059,0,.12,0,.179,0" transform="translate(-7.27 -6.347)" fill="#a40418"/>
    <path id="Path_9214" data-name="Path 9214" d="M31.411,91.28a16.615,16.615,0,0,1-16.5-14.05.926.926,0,0,1,.909-1.072,1.579,1.579,0,0,0,1.584-1.59.927.927,0,0,1,.927-.926H47.2a.926.926,0,0,1,.927.926A16.73,16.73,0,0,1,31.411,91.28m-14.5-13.451a14.86,14.86,0,0,0,29.329-2.335H19.131a3.468,3.468,0,0,1-2.219,2.335" transform="translate(-9.859 -48.725)" fill="#a40418"/>
    <path id="Path_9215" data-name="Path 9215" d="M3.25,75.494H.927a.926.926,0,1,1,0-1.852H3.25a.926.926,0,1,1,0,1.852" transform="translate(0 -48.725)" fill="#a40418"/>
    <path id="Path_9216" data-name="Path 9216" d="M110.862,75.494h-2.324a.926.926,0,1,1,0-1.852h2.324a.926.926,0,1,1,0,1.852" transform="translate(-71.2 -48.725)" fill="#a40418"/>
    <path id="Path_9217" data-name="Path 9217" d="M26.806,8.793a.9.9,0,0,1-.228-.029.922.922,0,0,1-.635-.56l-.779-1.986a2.939,2.939,0,0,1,1.663-3.809L32.447.2a2.938,2.938,0,0,1,3.809,1.664l.779,1.986a.927.927,0,0,1-.818,1.264A15,15,0,0,0,27.4,8.575a.928.928,0,0,1-.6.217M33.52,1.854a1.1,1.1,0,0,0-.4.075L27.5,4.135a1.086,1.086,0,0,0-.615,1.407l.327.832a16.99,16.99,0,0,1,7.641-3l-.327-.834a1.085,1.085,0,0,0-1.011-.689" transform="translate(-16.515 0)" fill="#a40418"/>
    <path id="Path_9218" data-name="Path 9218" d="M10.9,73.115a3.44,3.44,0,0,1-1.258-6.65,3.5,3.5,0,0,1,4.342,1.724,3.4,3.4,0,0,1,.341,1.484A3.455,3.455,0,0,1,10.9,73.115m-.017-5.031a1.552,1.552,0,0,0-.569.109,1.588,1.588,0,0,0,.569,3.071,1.581,1.581,0,0,0,1.588-1.59,1.536,1.536,0,0,0-.158-.681,1.591,1.591,0,0,0-1.43-.908" transform="translate(-4.921 -43.83)" fill="#a40418"/>
    <path id="Path_9219" data-name="Path 9219" d="M11.41,145.232a6.283,6.283,0,1,1,6.284-6.284,6.291,6.291,0,0,1-6.284,6.284m0-10.715a4.431,4.431,0,1,0,4.43,4.431,4.435,4.435,0,0,0-4.43-4.431" transform="translate(-3.392 -87.777)" fill="#a40418"/>
    <path id="Path_9220" data-name="Path 9220" d="M27.928,121.21a.947.947,0,0,1-.294-.048.927.927,0,0,1-.585-1.173l2.485-7.414a.926.926,0,1,1,1.757.588l-2.485,7.415a.927.927,0,0,1-.878.633" transform="translate(-17.865 -74.065)" fill="#a40418"/>
    <path id="Path_9221" data-name="Path 9221" d="M88.014,132.478a.928.928,0,0,1-.884-.649l-4.87-15.443a.927.927,0,0,1,1.768-.558L88.9,131.272a.927.927,0,0,1-.6,1.163.956.956,0,0,1-.279.044" transform="translate(-54.399 -76.209)" fill="#a40418"/>
    <path id="Path_9222" data-name="Path 9222" d="M56.205,146.829H37.626a.926.926,0,1,1,0-1.852h18.58a.926.926,0,1,1,0,1.852" transform="translate(-24.282 -95.923)" fill="#a40418"/>
  </g>
</svg>
