<svg xmlns="http://www.w3.org/2000/svg" xmlns:xlink="http://www.w3.org/1999/xlink" width="54.283" height="47.073" viewBox="0 0 54.283 47.073">
  <defs>
    <clipPath id="clip-path">
      <rect id="Rectangle_1339" data-name="Rectangle 1339" width="54.283" height="47.073" fill="none"/>
    </clipPath>
  </defs>
  <g id="Group_8642" data-name="Group 8642" transform="translate(0 0)">
    <g id="Group_8641" data-name="Group 8641" transform="translate(0 0)" clip-path="url(#clip-path)">
      <path id="Path_9255" data-name="Path 9255" d="M27.989,47.073H3.878A3.878,3.878,0,0,1,0,43.2V3.878A3.878,3.878,0,0,1,3.878,0H27.989C50.871,0,54.283,14.72,54.283,23.485c0,15.206-9.349,23.588-26.294,23.588M3.878,1.292A2.577,2.577,0,0,0,1.292,3.878V43.2a2.577,2.577,0,0,0,2.586,2.586H27.989c16.116,0,25-7.916,25-22.3,0-19.306-15.671-22.194-25-22.194H3.878" transform="translate(0 -0.001)"/>
      <path id="Path_9256" data-name="Path 9256" d="M16.583,9.2l-1.069,3.008h2.12L16.6,9.2Z" transform="translate(19.706 11.683)" fill="#c06"/>
      <path id="Path_9257" data-name="Path 9257" d="M11.2,9.711a1.813,1.813,0,0,0-.726-.545,2.952,2.952,0,0,0-1.11-.182H8.068v5.169h1.6v-.02a2.576,2.576,0,0,0,.767-.12,1.512,1.512,0,0,0,.647-.425,2.349,2.349,0,0,0,.463-.767,3.173,3.173,0,0,0,.182-1.151,4.621,4.621,0,0,0-.12-1.11,2.22,2.22,0,0,0-.4-.849" transform="translate(10.248 11.412)" fill="#c06"/>
      <path id="Path_9258" data-name="Path 9258" d="M21.434,2.242H9.1A2.59,2.59,0,0,0,6.512,4.826V39.117H21.434c13.553,0,19.426-7.655,19.426-18.477,0-10.361-5.873-18.4-19.426-18.4M15.275,21.689A3.883,3.883,0,0,1,14.587,23a3.34,3.34,0,0,1-1.149.869,4.076,4.076,0,0,1-1.637.322H8.267v-8.2h3.5v.018a4.438,4.438,0,0,1,1.473.243,3.3,3.3,0,0,1,1.19.747,4.074,4.074,0,0,1,.788,1.253,5.205,5.205,0,0,1,.282,1.778,6.093,6.093,0,0,1-.22,1.655m7.614,2.5h-6.22v-8.2h6.118V17.53h-4.32v1.757h3.977v1.392H18.467v2h4.422Zm7.269.02-.624-1.818H26.463l-.645,1.818H24l3.09-8.2h1.877l3.072,8.2Zm3.008,0v-8.2h1.8V22.7h4v1.514Z" transform="translate(8.272 2.847)" fill="#c06"/>
      <path id="Path_9259" data-name="Path 9259" d="M5.652,8.451a3.776,3.776,0,1,1-3.775,3.775A3.775,3.775,0,0,1,5.652,8.451" transform="translate(2.384 10.734)"/>
      <path id="Path_9260" data-name="Path 9260" d="M7.992,25.784h0A5.709,5.709,0,0,1,2.278,20.07V15.606a2.867,2.867,0,0,1,5.735,0V25.784Z" transform="translate(2.894 16.18)"/>
    </g>
  </g>
</svg>
