<svg id="Group_8622" data-name="Group 8622" xmlns="http://www.w3.org/2000/svg" xmlns:xlink="http://www.w3.org/1999/xlink" width="18.069" height="22.505" viewBox="0 0 18.069 22.505">
  <defs>
    <clipPath id="clip-path">
      <rect id="Rectangle_1332" data-name="Rectangle 1332" width="18.069" height="22.505" fill="none" stroke="#a4171d" stroke-width="1"/>
    </clipPath>
  </defs>
  <g id="Group_8621" data-name="Group 8621" clip-path="url(#clip-path)">
    <g id="Path_9253" data-name="Path 9253" transform="translate(-0.032 -0.032)" fill="none" stroke-linecap="round" stroke-linejoin="round">
      <path d="M17.383,9.4c0,4.778-8.316,12.416-8.316,12.416S.75,14.18.75,9.4A8.489,8.489,0,0,1,9.066.75,8.489,8.489,0,0,1,17.383,9.4Z" stroke="none"/>
      <path d="M 9.066363334655762 2.249994277954102 C 5.30781364440918 2.249994277954102 2.250002861022949 5.458595275878906 2.250002861022949 9.402504920959473 C 2.250002861022949 10.31279468536377 2.742623329162598 12.43485546112061 6.04183292388916 16.41940498352051 C 7.158583641052246 17.76813697814941 8.287128448486328 18.94924354553223 9.066361427307129 19.7296257019043 C 9.845647811889648 18.94919586181641 10.97414398193359 17.76813697814941 12.09089279174805 16.41940498352051 C 15.39010334014893 12.43485546112061 15.88272285461426 10.31279468536377 15.88272285461426 9.402504920959473 C 15.88272285461426 5.458595275878906 12.82491302490234 2.249994277954102 9.066363334655762 2.249994277954102 M 9.066363334655762 0.7499942779541016 C 13.65932273864746 0.7499942779541016 17.38272285461426 4.623754501342773 17.38272285461426 9.402504920959473 C 17.38272285461426 14.18029499053955 9.066363334655762 21.81862449645996 9.066363334655762 21.81862449645996 C 9.066363334655762 21.81862449645996 0.7500038146972656 14.18029499053955 0.7500038146972656 9.402504920959473 C 0.7500038146972656 4.623754501342773 4.473402976989746 0.7499942779541016 9.066363334655762 0.7499942779541016 Z" stroke="none" fill="#a4171d"/>
    </g>
    <g id="Path_9254" data-name="Path 9254" transform="translate(-0.252 -0.252)" fill="none" stroke-linecap="round" stroke-linejoin="round">
      <path d="M12.614,9.287A3.326,3.326,0,1,1,9.287,5.96,3.327,3.327,0,0,1,12.614,9.287Z" stroke="none"/>
      <path d="M 9.286970138549805 7.45999813079834 C 8.280129432678223 7.45999813079834 7.460999488830566 8.279558181762695 7.460999488830566 9.286928176879883 C 7.460999488830566 10.29429817199707 8.280129432678223 11.11385822296143 9.286970138549805 11.11385822296143 C 10.29434013366699 11.11385822296143 11.11389923095703 10.29429817199707 11.11389923095703 9.286928176879883 C 11.11389923095703 8.279558181762695 10.29434013366699 7.45999813079834 9.286970138549805 7.45999813079834 M 9.286970138549805 5.95999813079834 C 11.12472915649414 5.95999813079834 12.61389923095703 7.450128555297852 12.61389923095703 9.286928176879883 C 12.61389923095703 11.12372779846191 11.12472915649414 12.61385822296143 9.286970138549805 12.61385822296143 C 7.450169563293457 12.61385822296143 5.960999488830566 11.12372779846191 5.960999488830566 9.286928176879883 C 5.960999488830566 7.450128555297852 7.450169563293457 5.95999813079834 9.286970138549805 5.95999813079834 Z" stroke="none" fill="#a4171d"/>
    </g>
  </g>
</svg>
