<svg id="Group_8648" data-name="Group 8648" xmlns="http://www.w3.org/2000/svg" xmlns:xlink="http://www.w3.org/1999/xlink" width="51.468" height="31.954" viewBox="0 0 51.468 31.954">
  <defs>
    <clipPath id="clip-path">
      <rect id="Rectangle_1350" data-name="Rectangle 1350" width="51.468" height="31.954" transform="translate(0 0)" fill="none"/>
    </clipPath>
  </defs>
  <rect id="Rectangle_1349" data-name="Rectangle 1349" width="13.917" height="25.122" transform="translate(18.775 3.416)" fill="#ff5f00"/>
  <g id="Group_8647" data-name="Group 8647">
    <g id="Group_8646" data-name="Group 8646" clip-path="url(#clip-path)">
      <path id="Path_9265" data-name="Path 9265" d="M19.659,15.977A15.975,15.975,0,0,1,25.734,3.416,15.891,15.891,0,0,0,0,15.977,15.891,15.891,0,0,0,25.734,28.538a15.976,15.976,0,0,1-6.075-12.561" fill="#eb001b" fill-rule="evenodd"/>
      <path id="Path_9266" data-name="Path 9266" d="M50.971,25.877v-.62H50.81l-.185.427-.186-.427h-.161v.62h.114V25.41l.174.4h.118l.174-.4v.468Zm-1.021,0v-.514h.207v-.105h-.526v.105h.207v.514Zm1.518-9.9A15.891,15.891,0,0,1,25.734,28.538a16.023,16.023,0,0,0,0-25.122A15.891,15.891,0,0,1,51.468,15.977" fill="#f79e1b" fill-rule="evenodd"/>
    </g>
  </g>
</svg>
