<svg id="Group_8645" data-name="Group 8645" xmlns="http://www.w3.org/2000/svg" xmlns:xlink="http://www.w3.org/1999/xlink" width="35" height="43" viewBox="0 0 35 43">
  <defs>
    <clipPath id="clip-path">
      <rect id="Rectangle_1348" data-name="Rectangle 1348" width="35" height="43" fill="none"/>
    </clipPath>
  </defs>
  <g id="Group_8644" data-name="Group 8644" clip-path="url(#clip-path)">
    <path id="Path_9262" data-name="Path 9262" d="M8.554,34.087H1.007a1.014,1.014,0,0,1-.765-.352.992.992,0,0,1-.23-.8L5.1,1.038A1.222,1.222,0,0,1,5.519.3,1.251,1.251,0,0,1,6.326,0H19.291C25.43,0,29.9,4.415,29.791,9.765a9.335,9.335,0,0,1,5.089,9.852,12.038,12.038,0,0,1-4.115,7.306,12.281,12.281,0,0,1-7.931,2.905H19.016a1.248,1.248,0,0,0-.808.294,1.22,1.22,0,0,0-.418.743L16.08,41.571a1.222,1.222,0,0,1-.42.743,1.251,1.251,0,0,1-.807.3H8.371a1.02,1.02,0,0,1-.765-.35,1,1,0,0,1-.2-.376,1.007,1.007,0,0,1-.027-.426l1.181-7.368v0Z" transform="translate(0 0)" fill="#0070e0"/>
    <path id="Path_9263" data-name="Path 9263" d="M1.007,34.087H8.557l1.875-11.781a1.222,1.222,0,0,1,.414-.706,1.251,1.251,0,0,1,.807-.3h5.974A12.292,12.292,0,0,0,25.558,18.4a12.026,12.026,0,0,0,4.115-7.306,9.471,9.471,0,0,0,.119-1.328C29.9,4.415,25.43,0,19.291,0H6.326a1.251,1.251,0,0,0-.807.3,1.229,1.229,0,0,0-.42.743L.012,32.932a.984.984,0,0,0,.026.426,1.013,1.013,0,0,0,.2.377.992.992,0,0,0,.344.259,1.007,1.007,0,0,0,.422.093" transform="translate(0)" fill="#142c8e"/>
    <path id="Path_9264" data-name="Path 9264" d="M26.1,8.173a9.471,9.471,0,0,0,.119-1.328A11.453,11.453,0,0,0,20.926,5.6H10.117a1.251,1.251,0,0,0-.807.3,1.222,1.222,0,0,0-.42.743L6.851,19.42a1.233,1.233,0,0,1,.42-.741,1.251,1.251,0,0,1,.807-.3h5.974a12.292,12.292,0,0,0,7.931-2.9A12.026,12.026,0,0,0,26.1,8.173Z" transform="translate(3.574 2.922)" fill="#121661"/>
  </g>
</svg>
