<svg xmlns="http://www.w3.org/2000/svg" xmlns:xlink="http://www.w3.org/1999/xlink" width="47.936" height="47.936" viewBox="0 0 47.936 47.936">
  <defs>
    <clipPath id="clip-path">
      <rect id="Rectangle_1408" data-name="Rectangle 1408" width="26.731" height="22.325" fill="#a91818"/>
    </clipPath>
  </defs>
  <g id="Group_8944" data-name="Group 8944" transform="translate(-731.467 -822.567)">
    <rect id="Rectangle_1357" data-name="Rectangle 1357" width="47.936" height="47.936" transform="translate(731.467 822.567)" fill="#fff"/>
    <g id="Group_8823" data-name="Group 8823" transform="translate(741.071 836.258)">
      <g id="Group_8817" data-name="Group 8817" clip-path="url(#clip-path)">
        <path id="Path_9329" data-name="Path 9329" d="M11.209,22.24c1.131-.52,2.417-.844,3.192-2.028.629-.96,1.517-1.8,1.533-3.2,0-.157.178-.32.289-.464.7-.913,1.367-1.879,2.136-2.711.5-.541.613-1.513,1.41-1.7-.4-.786,1-.827.511-1.7-.1-.175.238-.339.455-.366A1.219,1.219,0,0,0,21.822,8.86l-.261-.147.282-.166v.011c1.53-.885,2.3-2.671,3.458-4A9.754,9.754,0,0,1,26.168,3.5a2.077,2.077,0,0,0,.45-2.113A2.3,2.3,0,0,0,24.927,0c-.081.006-.218.009-.234.056-.362,1.112-1.231.029-1.723.549-.6-.648-.761.062-1.006.454a4.2,4.2,0,0,0-.434,1.528c-.079.442-.295.76-.683.293-.357-.43-.53-.161-.6.227-.137.722-.307.842-.908.668A.821.821,0,0,0,19,3.766a6.367,6.367,0,0,1-.632,1.048l.011.067c.19,1.15-.573,1.587-.969,2.416-.243-.617.117-1.031.11-1.475-.438.56-.858,1.145-1.293,1.709-.111.144-.288.307-.289.464-.016,1.393-.9,2.237-1.533,3.2-.775,1.183-2.061,1.507-3.192,2.028A.988.988,0,0,1,9.9,12.631,45.315,45.315,0,0,0,6.721,7.519c-.035-.027-.068-.055-.1-.08-.252-.175-.354-.285-.294-.483a1.1,1.1,0,0,1,.13-.257A.382.382,0,0,0,6.2,6.138c-.756-.069-.518-.746-.59-1.223A1.852,1.852,0,0,0,3.556,3.182a1.514,1.514,0,0,0-.382.138c-.314.163-.514.371-.9.083-.279-.21-.788.089-.878.364A1.921,1.921,0,0,1,0,4.985a31.31,31.31,0,0,0,2.709,6,16.336,16.336,0,0,0,1.371,1.9A71.461,71.461,0,0,1,9.9,21.652a.988.988,0,0,0,1.312.588M5.408,7.165s-.057-.078-.048-.1c.029-.063.068-.151.116-.163.085-.021.124.052.1.153a1.813,1.813,0,0,1-.172.106m18.741-4.55-.025.01L24.1,2.6c-.09,0-.19.029-.233-.113,0,0,.074-.051.089-.038A1.362,1.362,0,0,1,24.1,2.6l.036,0,.01.012c.235-.091.455-.32.766-.126-.275.116-.48.509-.766.126M24.524,4.7l-.208-.13c.064-.053.127-.143.193-.147s.14.075.21.117l-.2.16m-.695.632.158-.158c.021.033.064.078.057.1-.024.069-.054.163-.1.185-.083.038-.127-.026-.112-.125" transform="translate(0 0)" fill="#a91818"/>
      </g>
    </g>
  </g>
</svg>
