<svg xmlns="http://www.w3.org/2000/svg" xmlns:xlink="http://www.w3.org/1999/xlink" width="67.5" height="21.875" viewBox="0 0 67.5 21.875">
  <defs>
    <clipPath id="clip-path">
      <rect id="Rectangle_1352" data-name="Rectangle 1352" width="67.5" height="21.876" fill="none"/>
    </clipPath>
  </defs>
  <g id="Group_8650" data-name="Group 8650" transform="translate(0 0)">
    <g id="Group_8649" data-name="Group 8649" transform="translate(0 0)" clip-path="url(#clip-path)">
      <path id="Path_9267" data-name="Path 9267" d="M43.974,0C39.18,0,34.9,2.485,34.9,7.076c0,5.266,7.6,5.628,7.6,8.273,0,1.115-1.276,2.109-3.456,2.109a11.475,11.475,0,0,1-5.406-1.393l-.99,4.633a16.871,16.871,0,0,0,6.2,1.177c5.242,0,9.375-2.6,9.375-7.276,0-5.562-7.63-5.917-7.63-8.37,0-.872,1.042-1.823,3.221-1.823A10.94,10.94,0,0,1,48.263,5.42L49.232.946A14.488,14.488,0,0,0,43.974,0M.117.339,0,1.014a22.547,22.547,0,0,1,3.833,1.1c2.344.844,2.505,1.336,2.9,2.865l4.292,16.547h5.755L25.633.339H19.9l-5.7,14.406L11.883,2.535a2.515,2.515,0,0,0-2.6-2.2Zm27.833,0-4.5,21.19h5.469L33.4.339H27.951Zm30.531,0a2.579,2.579,0,0,0-2.531,1.943L47.93,21.529h5.729l1.109-3.208H61.76l.674,3.208H67.5L63.073.339Zm.747,5.729,1.7,7.951H56.372l2.865-7.951Z" transform="translate(0 0)" fill="#1434cb"/>
    </g>
  </g>
</svg>
